<?xml version="1.0" encoding="UTF-8"?><svg id="b" xmlns="http://www.w3.org/2000/svg" viewBox="0 0 522.84 321.758"><g id="c"><g id="d"><path d="M512.618,245.462c2.415-2.507,4.421-5.195,6.016-8.158.911-1.641,1.55-3.372,2.005-5.15-1.595,4.694-4.147,9.206-7.975,13.308h-.046Z" fill="#ff5100"/><path d="M379.496,252.298c-39.285,0-78.661,2.598-117.262,10.026-23.061,4.421-46.394,10.482-68.225,18.959-22.195,8.659-44.845,16.68-68.452,20.326-9.798,1.504-19.779,2.279-29.714,1.96-25.02-.729-52.046-9.935-64.487-31.674-4.147-7.246-6.244-15.404-6.472-23.699.273.957.638,2.005,1.048,3.053,1.276,3.145,3.008,6.153,5.241,9.024,2.233,2.826,4.922,5.195,8.021,7.11,3.099,1.914,6.563,2.871,10.391,2.871,7.801-.095,15.161-1.268,22.028-3.419h.029c9.753,3.92,22.833,9.07,31.766,12.625,6.244,2.461,13.353.82,17.819-4.193h0c11.716-11.716,21.818-24.942,30.038-39.328l4.325-7.568c.638.729,1.322,1.413,2.051,2.051,1.094.957,2.188,1.869,3.372,2.78,1.185.957,2.096,2.188,2.826,3.783,1.276,2.552,2.142,4.968,2.507,7.292.41,2.324.684,4.512.957,6.517.217,1.91.517,3.696.82,5.318.23,1.228.914,3.14,1.6,4.184,1.681,2.558,3.476,4.227,5.327,5.127,1.908.928,3.815,1.273,5.591,1.034.631-.085,1.24-.389,1.651-.875.859-1.017,1.526-2.478,1.919-4.215.273-1.413.456-2.826.547-4.238.046-1.413,0-2.917-.182-4.512-.137-.82-.365-2.005-.729-3.6-.365-1.595-.775-3.19-1.322-4.785-.547-1.869-1.185-3.828-1.914-5.833-.319-1.048-.547-2.279-.638-3.692-.137-1.413-.182-2.734-.273-4.102-.046-1.367-.046-2.643,0-3.828.091-1.231.182-2.096.365-2.643,1.504-.501,3.418-1.139,5.788-1.777s4.831-1.367,7.474-2.142c2.598-.775,5.195-1.504,7.793-2.188,2.917-.82,7.064-3.327,10.026-1.686,3.555,1.96,3.464,8.887,4.33,12.351.82,3.281,1.823,6.38,3.008,9.206,1.185,2.871,2.598,5.287,4.147,7.292,1.595,1.96,3.464,3.145,5.651,3.464.911.137,1.914.137,2.962,0,1.094-.091,2.096-.273,3.008-.501.957-.228,1.686-.592,2.233-1.048.547-.501.775-1.048.638-1.641-.547-3.828-1.139-7.702-1.686-11.576-.592-3.874-.82-7.839-.775-11.895.046-4.056.501-8.158,1.367-12.351s2.233-8.477,4.147-12.897c1.003-1.777,2.051-3.464,3.236-5.15,1.185-1.686,2.324-2.461,3.509-2.37,1.55.091,2.643.547,3.327,1.367.684.82,1.276,2.096,1.777,3.828s.957,3.555,1.413,5.469c.456,1.914,1.094,3.646,1.823,5.241.775,1.595,2.051,2.871,3.874,3.919,1.322.775,2.78,1.231,4.33,1.413-1.413,3.236-2.461,6.472-3.099,9.662-.729,3.555-.775,6.745-.137,9.571.501,2.415,1.413,4.557,2.734,6.472,1.322,1.914,2.871,3.464,4.694,4.694,1.777,1.231,3.828,2.096,6.153,2.507,2.324.456,4.831.41,7.474-.137,2.233-.501,4.375-1.55,6.472-3.099s4.011-3.19,5.651-4.876,3.555-3.783,5.742-6.38c1.777,2.962,4.284,5.697,7.52,8.203s5.697,4.056,7.429,4.694c1.732.592,3.464,1.003,5.059,1.185,1.641.182,3.053.137,4.33-.137,2.005-.365,3.783-1.139,5.378-2.279.501.456,1.003.911,1.595,1.322,1.504,1.094,3.372,1.595,5.514,1.595,3.418,0,6.654-1.139,9.753-3.418s5.97-5.013,8.614-8.249c2.643-3.19,6.973-9.16,12.989-17.865-.091,2.689.137,6.016.684,9.981s2.233,7.975,5.104,11.986c1.276,1.55,2.643,2.826,4.193,3.919,1.504,1.094,3.099,1.96,4.785,2.643s3.281,1.139,4.785,1.413,2.917.319,4.193.137c2.142-.273,4.011-1.048,5.697-2.188.638.729,1.322,1.413,2.096,2.005,1.686,1.367,3.646,2.37,5.925,3.008s4.785.82,7.474.501c2.233-.319,4.512-1.185,6.745-2.552,2.233-1.367,4.238-2.871,6.016-4.375,1.777-1.55,3.874-3.509,6.244-5.879,1.55,3.099,3.828,6.016,6.836,8.75s5.332,4.512,7.018,5.287,3.327,1.276,4.968,1.595c1.595.319,3.053.365,4.33.228,2.096-.228,4.011-.866,5.697-1.914.911,2.279,2.188,4.284,3.919,6.061,1.732,1.823,3.828,3.327,6.198,4.421,2.37,1.094,5.059,1.732,8.021,1.869,2.142.091,4.694-.182,7.656-.866,2.962-.638,6.016-1.686,9.115-3.008,3.145-1.322,6.198-2.962,9.297-4.968,3.053-1.96,5.788-4.193,8.203-6.699,3.828-4.056,6.38-8.614,7.975-13.308,5.241-15.313.365-32.084-2.005-38.647-.228-.592-.456-1.185-.684-1.777-.228-.638-.592-1.185-1.048-1.686-.228-.228-.456-.501-.638-.729-.456-.501-.866-1.048-1.276-1.595-.866-1.094-1.732-2.233-2.598-3.372-.957-1.185-1.869-2.415-2.962-3.509-9.388-9.753-13.809-23.197-21.876-34.089-5.97-8.021-13.809-14.493-21.557-20.873-4.056-3.327-8.067-6.654-12.123-9.981-7.383-6.061-14.766-12.123-21.602-18.868-4.831-4.74-9.343-9.798-13.855-14.857-1.185-1.322-2.324-2.598-3.509-3.919-7.246-8.112-15.359-16.042-22.605-24.109-.775-4.512-4.74-7.702-8.431-10.436-1.595-1.185-3.145-2.324-4.694-3.509-2.598-1.96-5.514-3.965-8.75-3.919-2.742,0-5.239,1.52-7.491,3.086-4.772,3.318-9.129,7.194-13.089,11.448-6.098,6.55-12.697,12.597-19.799,18.143-.684.501-1.367,1.048-2.188,1.276-.319.091-.638.137-.957.091,0-4.238-.365-8.431-1.094-12.487h0C319.374,22.544,286.918-3.514,249.155.387c-32.77,3.385-59.226,30.046-62.376,62.839-1.356,14.124,1.466,27.422,7.367,38.951h0c2.142,4.147,4.694,8.112,7.611,11.713-1.094,1.003-2.188,2.005-3.281,2.962-9.16,8.203-18.685,16.042-28.438,23.516-2.643,2.005-5.287,4.011-7.93,5.97-1.322,1.003-2.689,1.96-4.011,2.962-1.139.866-2.552.82-3.737,1.777-2.096,1.777-17.364,6.699-19.415,7.155-1.641.365-3.236.911-4.785,1.504-.957.365-1.96.729-2.962,1.003-2.826.86-5.616,1.831-8.435,2.813-3.511,1.223-9.197,3.385-12.609,4.861-9.584,4.144-19.284,9.001-26.764,16.481-1.732,1.732-3.509,4.193-3.19,6.791.319,2.507,2.689,4.193,4.785,5.195.911.41,1.823.82,2.826,1.139,7.93,2.643,17.956,0,24.747,5.742,6.061,5.059,2.461,12.715-2.552,16.954-6.563,5.56-27.618,18.412-42.43,27.299-1.641.456-3.236.775-4.785,1.048-4.147.638-7.383.046-9.662-1.823-.638-.775-.547-1.96.319-3.6s2.142-3.646,3.783-5.97c1.641-2.324,3.509-5.013,5.651-7.93,2.142-2.962,4.147-6.153,6.061-9.571s3.555-7.11,5.013-10.983c1.413-3.874,2.233-7.839,2.461-11.895.319-4.375-.501-7.93-2.461-10.71-.638-.911-1.322-1.732-2.051-2.507,9.707-6.426,19.506-12.761,27.664-20.964h0c1.914-1.914,2.917-4.147,2.917-6.699,0-3.053-.729-5.833-2.188-8.34-1.458-2.507-3.418-4.649-5.879-6.38-2.461-1.732-5.195-3.099-8.249-4.011-3.053-.911-6.153-1.276-9.343-1.048-1.185.091-3.828.684-7.93,1.732s-8.841,2.415-14.265,4.193c-5.378,1.732-11.075,3.783-16.999,6.153-5.97,2.37-11.394,4.785-16.361,7.383-4.968,2.552-9.069,5.195-12.351,7.884s-4.922,5.241-4.922,7.793c0,3.828,1.231,6.927,3.692,9.343,2.461,2.415,5.378,4.284,8.75,5.651,3.372,1.367,6.745,2.324,10.072,2.871,3.327.547,5.925.82,7.793.82,3.372.228,6.061.273,8.021.182.41,0,.911-.046,1.504-.091-7.611,9.388-14.401,19.46-20.235,30.033-5.287,9.525-9.844,19.597-11.621,30.307-3.919,23.516,8.887,41.791,29.578,51.863,33.588,16.407,74.468,19.825,110.654,11.302,23.197-5.469,44.891-15.769,67.267-23.926,22.696-8.294,44.891-12.897,69.09-11.12,16.726,1.185,33.224,3.692,49.721,7.018,33.041,6.654,65.581,15.814,97.711,25.932,8.585,2.73,17.169,5.484,25.702,8.398,5.925,2.024,12.35,1.887,18.105-.577,7.03-3.01,18.362-7.03,33.281-9.581,16.348-2.796,18.527-25.405,3.154-31.631-33.669-13.635-79.41-26.402-132.652-26.402l-.091.137ZM360.537,201.757c-2.096,3.418-4.466,6.791-7.018,10.026-2.552,3.281-5.241,6.198-8.021,8.75-2.78,2.552-5.241,4.193-7.383,4.922.729-2.461,1.322-5.013,1.686-7.52.137-1.003.273-1.96.365-2.917.638-1.185,1.367-2.37,2.142-3.646,1.504-2.37,3.281-4.74,5.332-7.064,2.005-2.324,4.056-4.375,6.061-6.198,2.005-1.777,4.011-3.19,6.016-4.193,1.96-1.003,3.737-1.367,5.241-1.094-.82,2.507-2.279,5.469-4.375,8.887l-.046.046ZM501.407,232.155c-1.869,2.461-4.284,4.785-7.246,7.018-2.917,2.188-5.742,3.828-8.386,4.831-2.643,1.048-4.922,1.504-6.836,1.413-1.276.137-2.188,0-2.826-.319-.592-.365-1.048-.775-1.276-1.276-.228-.501-.365-1.048-.319-1.55,0-.547.046-1.003.046-1.367.592-3.236,1.413-6.153,2.461-8.796s2.142-5.195,3.327-7.611,2.188-4.694,2.962-6.791c.775-2.142,1.003-3.965.729-5.514,1.504,0,3.464.273,5.742.911s4.557,1.458,6.745,2.552,4.056,2.37,5.606,3.783c1.55,1.413,2.279,3.053,2.188,4.831-.137,2.78-1.139,5.423-3.008,7.884h.091ZM220.442,87.229c1.96-2.142,3.919-4.33,5.788-6.426,11.94-13.353,24.337-27.162,40.652-36.004,7.155-3.874,13.9-5.788,20.053-5.788,2.734,0,5.423.41,7.93,1.139,3.236,1.003,5.332,3.327,7.064,5.241.592.638,1.413,1.595,1.823,1.823.41.273,1.139.501,1.869.775.592.228,1.23.456,1.914.729,4.694,2.005,8.112,5.469,11.12,8.614.638,3.099,1.094,6.289,1.276,9.525-4.968-4.102-8.705-10.163-14.675-12.715-1.55-.638-3.236-1.048-4.649-1.96-2.552-1.595-4.603-5.514-7.474-6.426-7.793-2.37-16.27.319-23.425,4.193-17.956,9.707-31.127,26.114-44.891,41.199-5.697,6.289-11.667,12.305-17.819,18.139-1.231-1.55-2.37-3.19-3.464-4.876,6.016-5.697,11.667-11.485,16.954-17.273l-.046.091ZM135.446,172.772c2.233-1.914,4.74-3.509,7.018-5.332,1.458-1.139,8.522-4.375,10.619-4.512,2.166-.148,4.331-.03,6.44-.392,1.056-.182,2.035-.663,2.993-1.143,3.075-1.541,6.335-2.409,9.526-2.521h1.367c5.104,0,8.933,1.504,11.667,3.281.957-.957,1.96-1.823,2.962-2.643,4.922-3.783,10.983-6.016,14.857-10.938,1.914-2.461,3.145-5.423,4.74-8.112,3.145-5.423,7.839-9.935,13.262-12.761-2.096,4.922-4.193,9.844-6.244,14.766-.957,2.279-1.96,4.603-2.507,7.064-1.686,7.565.82,15.541-.319,23.197,4.649-1.732,7.702-6.973,9.844-11.621,6.791-14.675,18.23-26.98,32.039-34.408,1.869-1.003,3.783-1.914,5.287-3.464,1.367-1.367,2.279-3.099,3.236-4.785,4.785-8.477,10.71-16.27,17.5-23.061,3.874-3.874,8.386-8.34,7.884-13.946-13.308,5.97-25.476,14.72-35.639,25.567,7.155-8.294,14.356-16.68,23.106-23.061s19.278-10.71,29.897-9.844c-5.97-6.608-10.573-14.538-13.49-23.106,6.38,8.067,13.809,15.222,21.967,21.283,2.37,1.777,5.104,3.509,7.975,3.236-9.662,9.297-16.954,21.329-20.827,34.454-1.686,5.651-2.826,11.621-5.925,16.543-8.203,12.897-27.208,14.493-34.91,27.709-1.185,2.051-2.051,4.284-3.372,6.244-3.053,4.466-8.067,6.791-12.67,9.388-.319.182-.684.365-1.003.592,1.231,0,2.461.046,3.646.182,3.327.365,6.745,1.185,10.436,2.643.046,0,.137.046.182.091,2.415.957,3.828,1.458,4.603,1.686,1.732.501,3.281,1.003,4.603,1.458h0c.957.319,1.914.729,2.826,1.185,15.131-8.614,28.21-21.192,37.735-36.277,2.233,3.418,4.557,6.699,6.973,9.981.501.684,1.139,1.413,1.96,1.504.957.137,1.777-.638,2.415-1.367,11.348-12.305,21.101-26.251,28.803-41.381.046,7.155,7.702,12.533,14.31,14.219,5.651,1.413,11.439,2.324,17.227,2.598,1.823.091,3.646.137,5.423.592,5.742,1.504,11.029,7.383,16.589,5.195-.501,7.884,9.798,12.214,11.12,20.007.273,1.686.137,3.372.41,5.059.182,1.048.547,2.051,1.003,2.962,1.686-2.051,3.783-3.692,6.289-4.922,2.734-1.322,5.925-2.051,9.388-2.142h1.185c1.185,0,2.37.046,3.555.182-.911-.911-1.732-1.869-2.415-2.917-4.649-7.11-2.962-17.911-9.16-23.516-3.145-2.826-7.474-3.464-11.348-4.831-8.34-2.962-15.359-9.935-18.594-18.549-1.732-4.649-2.78-10.209-6.882-12.852-3.464-2.233-7.884-1.413-11.895-.957-4.603.547-10.163.137-12.123-4.876-.82-2.142-.684-4.512.091-6.654,2.188-6.061,7.884-9.252,10.983-14.493,3.281-5.514,3.236-12.533,1.96-18.913,2.826,4.649,7.429,7.793,11.621,11.166,9.434,7.611,17.318,17.273,23.106,28.165,4.466,8.431,8.477,18.412,17.09,21.921,1.777.729,3.828,1.231,4.831,2.917.911,1.504.638,3.509.638,5.287,0,7.337,4.922,13.581,10.163,18.458,5.241,4.831,11.211,9.16,14.629,15.586,1.504,2.826,2.415,5.879,2.962,9.024h.091c3.965,0,7.748,1.276,10.938,3.737,3.418,2.598,5.788,6.472,6.654,10.892.365,1.504.592,3.372.547,5.423,1.23-1.641,2.415-3.327,3.555-5.059,2.78,2.598,5.514,5.15,8.294,7.702,2.552,2.37,5.104,4.785,7.748,7.11,5.287.501,11.804.319,15.769,4.421,2.643,2.734,2.871,6.335,3.828,9.844,1.276,4.694,2.279,10.163,2.415,15.769-.638-1.185-1.367-2.37-2.188-3.509-.365-.501-.729-.957-1.185-1.413-1.322-1.458-3.053-2.871-5.104-4.193-.182-.137-.365-.273-.592-.365-3.008-1.914-6.973-3.464-11.849-4.694s-10.664-1.641-17.273-1.231-9.935,1.823-9.844,4.238c.137.82.547,1.686,1.139,2.552.638.866,1.641,1.55,3.053,1.96-1.003.82-2.051,1.823-3.19,3.053-.547-.41-1.23-.82-2.051-1.094-1.003-.365-1.823-.365-2.552.091-.365.182-1.094,1.185-2.142,2.962-1.048,1.823-2.415,3.919-4.056,6.244-1.641,2.37-3.418,4.603-5.332,6.745-1.914,2.188-3.965,3.509-6.153,4.011-.729,0-1.276-.365-1.732-1.048-.41-.684-.729-1.823-.957-3.464-.182-1.641-.365-3.783-.456-6.472,0-.82,0-2.188-.046-4.102s-.41-3.737-1.094-5.423-1.732-3.099-3.099-4.33c-1.322-1.185-3.19-1.732-5.514-1.732h-.182c-.228,0-.501.091-.775.182-.091,0-.182.091-.319.137-.091,0-.182.091-.273.137-.684.319-1.413.82-2.233,1.504-1.413,1.185-2.871,2.643-4.421,4.375-1.504,1.732-3.145,3.646-4.831,5.788-1.686,2.142-3.418,4.102-5.195,5.97-1.732,1.869-3.828,3.919-6.244,6.153-2.415,2.233-4.421,3.418-5.925,3.6-1.139.046-1.823-.456-1.96-1.595.228-.41.41-.866.638-1.276,1.458-3.19,2.552-6.472,3.145-9.798.091-.365.137-.729.182-1.094,2.005-3.828,4.147-7.292,6.426-10.3,2.507-3.327,4.876-6.016,7.201-8.158,2.279-2.096,4.512-3.281,6.699-3.509,1.185-.046,1.823.137,1.96.592.137.456.091,1.003-.091,1.595-.182.638-.273,1.276-.319,1.869.091.729.456,1.231,1.185,1.504.82.365,1.595.547,2.415.501.41,0,.82,0,1.185-.046h.82c.319-.046.638-.137.957-.228.957-.273,1.869-.638,2.78-1.139,1.23-.638,2.279-1.504,3.099-2.552s1.413-2.279,1.823-3.6c.365-1.322.501-2.78.365-4.284-.228-1.458-.866-2.734-1.869-3.965s-2.233-2.142-3.646-2.917c-1.413-.729-2.917-1.276-4.421-1.595s-2.917-.365-4.193-.228c-2.507.41-5.332,1.458-8.34,3.145-3.053,1.686-6.061,3.828-9.024,6.472-2.962,2.643-5.788,5.56-8.477,8.705-2.689,3.19-4.968,6.517-6.927,9.981-1.823,3.236-3.236,6.472-4.238,9.753-.547.638-1.048,1.231-1.641,1.823-1.914,2.005-3.828,3.281-5.788,3.828-.365,0-.729-.182-1.094-.547s-.684-1.048-1.003-2.005c-.319-1.003-.592-2.415-.82-4.238s-.365-4.193-.365-7.064c0-6.289.319-12.806.957-19.551s1.367-12.943,2.142-18.594c.82-5.651,1.55-10.391,2.142-14.174.638-3.783.957-5.879.957-6.335,0-1.641-.82-3.19-2.507-4.74-1.686-1.504-3.646-2.279-6.016-2.279-1.276,0-2.324.82-3.236,2.415s-1.732,3.6-2.415,6.016c-.729,2.37-1.367,5.104-1.869,8.158-.547,3.053-1.048,5.97-1.504,8.705s-.957,5.287-1.55,7.611-1.185,4.056-1.823,5.104c-.729-.638-1.732-1.276-3.053-1.96s-2.324-1.003-3.053-1.003c-3.327,0-6.563.775-9.753,2.37-3.19,1.595-6.198,3.646-9.024,6.198s-5.469,5.423-7.884,8.614c-2.415,3.19-4.512,6.426-6.244,9.707-1.367,2.507-2.507,5.013-3.418,7.429-.866,1.322-1.777,2.643-2.734,3.919-1.732,2.324-3.691,3.783-5.788,4.466-.729.046-1.322-.273-1.823-.911s-.911-1.777-1.23-3.372c-.319-1.595-.638-3.737-1.003-6.426-.046-.82-.182-2.188-.365-4.102-.228-1.914-.729-3.692-1.55-5.332-.82-1.595-1.96-2.962-3.418-4.056-1.322-.957-3.053-1.413-5.195-1.322-.228,0-.41,0-.638.046-1.003.137-2.142.866-3.464,2.188-1.322,1.276-2.643,2.871-4.056,4.694-1.367,1.823-2.826,3.874-4.33,6.153-1.55,2.233-3.099,4.375-4.694,6.38-1.595,2.005-3.509,4.193-5.742,6.608-2.233,2.415-4.102,3.783-5.606,4.056-1.231.182-1.96-.41-2.142-1.777-.182-2.689.684-6.289,2.507-10.801,1.823-4.512,3.874-8.522,6.107-12.077,2.233-3.509,4.375-6.426,6.472-8.705s4.238-3.646,6.38-4.056c1.139-.137,1.823,0,1.96.41s.182.957,0,1.595c-.137.638-.182,1.276-.137,1.914.137.729.547,1.185,1.276,1.413.82.319,1.641.41,2.461.319s1.458-.182,2.005-.319c.456-.137.911-.273,1.367-.456.775-.319,1.504-.684,2.233-1.185,1.185-.729,2.142-1.686,2.871-2.826.729-1.139,1.276-2.37,1.55-3.737s.273-2.826,0-4.33c-.365-1.413-1.094-2.689-2.188-3.783s-2.37-1.96-3.874-2.598-3.008-1.048-4.557-1.185c-1.55-.182-2.917-.137-4.193.137-2.507.592-5.195,1.869-8.067,3.783-2.917,1.914-5.742,4.33-8.477,7.201-2.734,2.871-5.332,6.016-7.748,9.388-.501.729-1.003,1.413-1.458,2.142,0-.182-.046-.319-.091-.501-.319-1.777-.911-3.555-1.686-5.332-.684-1.413-1.458-2.461-2.324-3.19s-1.869-1.276-3.008-1.686-2.507-.82-4.056-1.276-3.509-1.139-5.925-2.096c-2.507-.957-4.74-1.504-6.699-1.732-2.005-.228-4.011-.137-6.061.273-1.96.365-3.737,1.094-5.287,2.188-1.55,1.048-2.917,2.233-4.147,3.509-1.185,1.276-2.233,2.598-3.19,3.874-.911,1.322-1.686,2.279-2.279,2.962-1.413-1.276-3.053-1.96-4.968-2.096-1.914-.137-3.236,0-4.011.41-.957.41-1.641,1.094-2.051,2.051-.501,1.185-.365,2.643-.866,3.737-2.461,5.195-11.804,3.874-16.316,4.238-2.917.228-8.021.729-15.267,1.413-.046-1.094-.137-2.415-.182-4.056-.091-1.595-.137-3.327-.182-5.195-.046-1.823,0-4.694.182-8.568,0-1.003.091-2.461.137-4.375,0-1.96-.091-3.828-.41-5.697s-1.003-3.418-2.005-4.694c-1.003-1.276-2.734-1.823-5.15-1.686-1.003.046-2.005.273-3.008.684s-1.96.911-2.78,1.504-1.55,1.231-2.188,1.914c-.638.684-1.094,1.322-1.322,1.869-.228.82-.319,1.732-.273,2.78s.137,2.096.273,3.145c.137,1.094.273,2.096.365,3.008.046.638.091,1.185.137,1.641-2.461-1.094-5.195-1.641-7.793-2.051-3.6-.592-7.201-.775-10.801-1.094-2.78-.228-5.606-.501-8.386-.957-2.011-.309-4.139-.619-5.855-1.786-.415-.283-.785-.69-.999-1.145-1.804-3.837,2.679-8.085,5.259-10.331h.137ZM34.545,173.865c-2.051-.319-3.053-.866-2.962-1.641.319-.547,1.276-1.276,2.871-2.188s3.555-1.914,5.879-3.008,4.922-2.188,7.793-3.281c2.826-1.094,5.606-2.096,8.249-3.053,2.689-.911,5.195-1.686,7.52-2.279,2.37-.592,4.056-.911,5.059-.957s2.005.091,2.871.41c.41.319-.091,1.003-1.55,2.051s-2.598,1.96-3.372,2.78c-.365.41-.729.82-1.048,1.185-.957.684-1.869,1.458-2.734,2.233-3.783,3.372-7.474,6.927-11.029,10.573-3.509-.684-6.791-1.231-9.844-1.686-3.099-.41-5.697-.82-7.793-1.139h.091ZM37.599,209.687c5.241-6.699,11.667-12.168,18.549-17.181.319.684.501,1.641.501,2.826,0,2.415-.775,4.922-2.37,7.52-1.595,2.598-3.6,5.332-6.061,8.112s-5.059,5.56-7.839,8.34c-2.78,2.78-5.423,5.56-7.884,8.34s-4.466,5.469-6.061,8.021c-.273.456-.547.911-.775,1.367,1.641-9.89,5.742-19.46,11.94-27.344Z" fill="#ff5100"/><path d="M457.291,179.972c-.729,1.641-2.461,2.461-5.195,2.507-2.552.137-5.013-.137-7.337-.82s-4.557-1.413-6.745-2.279-4.284-1.641-6.335-2.37-4.102-1.139-6.198-1.276c-1.185,0-1.96.228-2.324.729l.182.365c0,.273-.046.592-.046.957s-.365.547-1.094.547-1.413-.228-2.051-.684c-.638-.501-1.048-1.276-1.185-2.37-.41-1.322-.228-2.78.456-4.421.729-1.641,2.461-2.461,5.195-2.507,2.279-.091,4.557.228,6.836.911,2.233.684,4.466,1.458,6.608,2.324,2.188.866,4.375,1.641,6.563,2.415s4.421,1.139,6.563,1.048c1.185,0,1.96-.228,2.324-.729l-.137-.365v-.957c0-.365.365-.547,1.094-.547s1.413.228,2.051.684c.638.501,1.048,1.276,1.185,2.37.41,1.322.228,2.78-.456,4.421l.046.046Z" fill="#ff5100"/></g></g></svg>